<?xml version="1.0" encoding="utf-8"?>
<!-- Generator: Adobe Illustrator 23.1.0, SVG Export Plug-In . SVG Version: 6.00 Build 0)  -->
<svg version="1.1" id="Layer_1" xmlns="http://www.w3.org/2000/svg" xmlns:xlink="http://www.w3.org/1999/xlink" x="0px" y="0px"
	 viewBox="0 0 30 30" style="enable-background:new 0 0 30 30;" xml:space="preserve">
<style type="text/css">
	.st0{fill:#2E3192;}
	.st1{fill:#EF4136;}
	.st2{fill:#FFFFFF;}
</style>
<g>
	<path class="st0" d="M12.2,15c0,0.6-0.5,1-1.5,1H8.8v-3.6h1.8c0.9,0,1.4,0.4,1.4,0.9c0,0.3-0.2,0.6-0.5,0.8
		C12,14.3,12.2,14.6,12.2,15z M9.8,13.2v0.7h0.7c0.3,0,0.5-0.1,0.5-0.3c0-0.2-0.2-0.3-0.5-0.3H9.8z M11.2,14.9
		c0-0.2-0.2-0.4-0.5-0.4H9.8v0.7h0.8C11,15.3,11.2,15.2,11.2,14.9z"/>
	<path class="st0" d="M12.6,12.2h1V16h-1V12.2z"/>
	<path class="st0" d="M13.9,14.6c0-0.8,0.7-1.4,1.6-1.4c0.9,0,1.6,0.6,1.6,1.4c0,0.8-0.6,1.4-1.6,1.4C14.5,16.1,13.9,15.5,13.9,14.6
		z M16,14.6c0-0.4-0.3-0.7-0.6-0.7c-0.3,0-0.6,0.2-0.6,0.7c0,0.4,0.3,0.7,0.6,0.7C15.8,15.3,16,15,16,14.6z"/>
	<path class="st0" d="M20.3,13.2v2.3c0,1-0.6,1.5-1.6,1.5c-0.5,0-1-0.1-1.4-0.4l0.4-0.7c0.2,0.2,0.6,0.3,0.9,0.3
		c0.5,0,0.7-0.2,0.7-0.7v-0.1c-0.2,0.2-0.5,0.3-0.8,0.3c-0.7,0-1.4-0.5-1.4-1.3c0-0.8,0.6-1.3,1.4-1.3c0.4,0,0.7,0.1,0.9,0.4v-0.3
		H20.3z M19.3,14.5c0-0.3-0.3-0.6-0.6-0.6s-0.6,0.2-0.6,0.6c0,0.3,0.3,0.6,0.6,0.6S19.3,14.9,19.3,14.5z"/>
	<path class="st0" d="M23.8,13.2v2.3c0,1-0.6,1.5-1.6,1.5c-0.5,0-1-0.1-1.4-0.4l0.4-0.7c0.2,0.2,0.6,0.3,0.9,0.3
		c0.5,0,0.7-0.2,0.7-0.7v-0.1c-0.2,0.2-0.5,0.3-0.8,0.3c-0.7,0-1.4-0.5-1.4-1.3c0-0.8,0.6-1.3,1.4-1.3c0.4,0,0.7,0.1,0.9,0.4v-0.3
		H23.8z M22.8,14.5c0-0.3-0.3-0.6-0.6-0.6s-0.6,0.2-0.6,0.6c0,0.3,0.3,0.6,0.6,0.6S22.8,14.9,22.8,14.5z"/>
	<path class="st0" d="M27.1,14.9h-2c0.1,0.3,0.3,0.4,0.7,0.4c0.3,0,0.5-0.1,0.6-0.2l0.5,0.5c-0.3,0.3-0.7,0.4-1.2,0.4
		c-1,0-1.6-0.6-1.6-1.4c0-0.8,0.6-1.4,1.5-1.4c0.8,0,1.5,0.5,1.5,1.4C27.1,14.7,27.1,14.8,27.1,14.9z M25.1,14.4h1.1
		c-0.1-0.3-0.3-0.5-0.6-0.5C25.3,13.9,25.1,14.1,25.1,14.4z"/>
	<path class="st0" d="M29.3,13.2v0.9c-0.1,0-0.1,0-0.2,0c-0.4,0-0.7,0.2-0.7,0.7V16h-1v-2.8h0.9v0.3C28.6,13.3,28.9,13.2,29.3,13.2z
		"/>
</g>
<path class="st1" d="M7.7,17.2H2.4c-0.5,0-0.9-0.4-0.9-0.9v-4.1c0-0.5,0.4-0.9,0.9-0.9h4.4c0.5,0,0.9,0.4,0.9,0.9V17.2z"/>
<g>
	<path class="st2" d="M6.5,14.9c0,0.6-0.5,1-1.5,1H3v-3.5h1.9c1,0,1.4,0.4,1.4,0.9c0,0.3-0.2,0.6-0.5,0.8
		C6.2,14.2,6.5,14.5,6.5,14.9z M4.2,13.2v0.5h0.5c0.3,0,0.4-0.1,0.4-0.3c0-0.2-0.1-0.3-0.4-0.3H4.2z M5.3,14.8
		c0-0.2-0.1-0.3-0.4-0.3H4.2V15h0.7C5.2,15,5.3,14.9,5.3,14.8z"/>
</g>
</svg>
